<svg width="580" height="400" xmlns="http://www.w3.org/2000/svg">
 <!-- Created with Method Draw - http://github.com/duopixel/Method-Draw/ -->
 <g>
  <title>background</title>
  <rect fill="none" id="canvas_background" height="402" width="582" y="-1" x="-1"/>
  <g display="none" overflow="visible" y="0" x="0" height="100%" width="100%" id="canvasGrid">
   <rect fill="url(#gridpattern)" stroke-width="0" y="0" x="0" height="100%" width="100%"/>
  </g>
 </g>
 <g>
  <title>Layer 1</title>
  <rect stroke="#2D6862" id="svg_5" height="398" width="398" y="0.333333" x="97.5" stroke-width="1.5" fill="#ffffff"/>
  <path id="svg_4" d="m389.986812,186.363709c-10.850379,-17.927667 -24.12504,-32.441986 -37.440472,-42.595315c-15.537017,10.40722 -34.460263,16.744446 -55.090281,16.744446c-20.670523,0 -39.620991,-6.349576 -55.130615,-16.744446c-13.315401,10.153329 -26.603627,24.667648 -37.480635,42.595315c-25.249335,41.622904 -28.026144,84.317385 -6.217794,95.387495c9.766699,4.986732 20.006941,1.269909 30.586271,-8.05337c-1.855759,9.453219 -2.939486,19.699283 -2.939486,30.416379c0,47.613319 20.223843,86.182092 45.147529,86.182092c15.022344,0 22.458851,-14.043757 26.034729,-35.545814c3.562687,21.502058 10.999132,35.545814 25.967033,35.545814c24.964644,0 45.188674,-38.568773 45.188674,-86.182092c0,-10.717111 -1.084085,-20.96316 -2.980178,-30.416379c10.606178,9.323279 20.83295,13.040101 30.626761,8.05337c21.794927,-11.07011 18.977113,-53.764606 -6.27152,-95.387495l-0.000016,0zm-92.557414,-42.09358c41.937041,0 75.950172,-31.110158 75.950172,-69.486872s-34.01313,-69.486958 -75.950172,-69.486958c-41.951307,0 -75.991301,31.116347 -75.991301,69.486958s34.039993,69.486872 75.991301,69.486872z" stroke-opacity="null" stroke-width="1.5" fill="#84D3DB"/>
 </g>
</svg>