<svg width="580" height="400" xmlns="http://www.w3.org/2000/svg">
 <!-- Created with Method Draw - http://github.com/duopixel/Method-Draw/ -->
 <g>
  <title>background</title>
  <rect fill="none" id="canvas_background" height="402" width="582" y="-1" x="-1"/>
  <g display="none" overflow="visible" y="0" x="0" height="100%" width="100%" id="canvasGrid">
   <rect fill="url(#gridpattern)" stroke-width="0" y="0" x="0" height="100%" width="100%"/>
  </g>
 </g>
 <g>
  <title>Layer 1</title>
  <path stroke="#000000" id="svg_3" d="m290.702318,6.116635c-144.699578,0 -261.999971,88.190146 -261.999971,196.993074c0,37.173908 13.867485,71.914761 37.727708,101.573765l-37.727708,82.937109l105.04281,-27.025395c43.77252,24.691931 98.007266,39.521443 156.957161,39.521443c144.69993,0 262.000082,-88.204551 262.000082,-197.006922s-117.300152,-196.993074 -262.000082,-196.993074zm18.379274,308.38636l-36.851331,0l0,-35.441774l36.851331,0l0,35.441774zm0,-73.28887l0,11.723343l-36.851331,0l0,-14.428773c0,-43.543918 49.426796,-50.443253 49.426796,-81.36213c0,-14.11413 -12.575483,-24.935645 -29.062783,-24.935645c-17.069292,0 -32.057546,12.611101 -32.057546,12.611101l-20.963613,-26.138027c0,0 20.663729,-21.628755 56.312267,-21.628755c33.87427,0 65.314237,21.027554 65.314237,56.455425c0.01796,49.584714 -52.118045,55.281648 -52.118045,87.703461l0.000019,0z" stroke-width="1.5" fill="#ff0000"/>
 </g>
</svg>